HIERARCHY
ROOT Hips
{
	OFFSET 0.00000 0.00000 0.00000
	CHANNELS 6 Xposition Yposition Zposition Zrotation Yrotation Xrotation 
	JOINT LHipJoint
	{
		OFFSET 0 0 0
		CHANNELS 3 Zrotation Yrotation Xrotation
		JOINT LeftUpLeg
		{
			OFFSET 1.37590 -1.78394 0.89329
			CHANNELS 3 Zrotation Yrotation Xrotation
			JOINT LeftLeg
			{
				OFFSET 2.47928 -6.81178 0.00000
				CHANNELS 3 Zrotation Yrotation Xrotation
				JOINT LeftFoot
				{
					OFFSET 2.63345 -7.23535 0.00000
					CHANNELS 3 Zrotation Yrotation Xrotation
					JOINT LeftToeBase
					{
						OFFSET 0.23938 -0.65768 2.27012
						CHANNELS 3 Zrotation Yrotation Xrotation
						End Site
						{
							OFFSET 0.00000 -0.00000 1.18363
						}
					}
				}
			}
		}
	}
	JOINT RHipJoint
	{
		OFFSET 0 0 0
		CHANNELS 3 Zrotation Yrotation Xrotation
		JOINT RightUpLeg
		{
			OFFSET -1.33617 -1.78394 0.89329
			CHANNELS 3 Zrotation Yrotation Xrotation
			JOINT RightLeg
			{
				OFFSET -2.56922 -7.05888 0.00000
				CHANNELS 3 Zrotation Yrotation Xrotation
				JOINT RightFoot
				{
					OFFSET -2.56568 -7.04915 0.00000
					CHANNELS 3 Zrotation Yrotation Xrotation
					JOINT RightToeBase
					{
						OFFSET -0.27533 -0.75646 2.18105
						CHANNELS 3 Zrotation Yrotation Xrotation
						End Site
						{
							OFFSET -0.00000 -0.00000 1.15233
						}
					}
				}
			}
		}
	}
	JOINT LowerBack
	{
		OFFSET 0 0 0
		CHANNELS 3 Zrotation Yrotation Xrotation
		JOINT Spine
		{
			OFFSET 0.06190 2.15152 -0.00935
			CHANNELS 3 Zrotation Yrotation Xrotation
			JOINT Spine1
			{
				OFFSET 0.06334 2.15332 0.00872
				CHANNELS 3 Zrotation Yrotation Xrotation
				JOINT Neck
				{
					OFFSET 0 0 0
					CHANNELS 3 Zrotation Yrotation Xrotation
					JOINT Neck1
					{
						OFFSET -0.04202 1.66908 0.23524
						CHANNELS 3 Zrotation Yrotation Xrotation
						JOINT Head
						{
							OFFSET 0.07510 1.69357 -0.24440
							CHANNELS 3 Zrotation Yrotation Xrotation
							End Site
							{
								OFFSET 0.02556 1.71719 -0.11000
							}
						}
					}
				}
				JOINT LeftShoulder
				{
					OFFSET 0 0 0
					CHANNELS 3 Zrotation Yrotation Xrotation
					JOINT LeftArm
					{
						OFFSET 3.67168 1.26306 -0.41342
						CHANNELS 3 Zrotation Yrotation Xrotation
						JOINT LeftForeArm
						{
							OFFSET 4.68510 -0.00000 -0.00000
							CHANNELS 3 Zrotation Yrotation Xrotation
							JOINT LeftHand
							{
								OFFSET 3.39626 -0.00000 -0.00000
								CHANNELS 3 Zrotation Yrotation Xrotation
								JOINT LeftFingerBase
								{
									OFFSET 0 0 0
									CHANNELS 3 Zrotation Yrotation Xrotation
									JOINT LeftHandIndex1
									{
										OFFSET 0.48608 -0.00000 -0.00000
										CHANNELS 3 Zrotation Yrotation Xrotation
										End Site
										{
											OFFSET 0.39189 -0.00000 -0.00000
										}
									}
								}
								JOINT LThumb
								{
									OFFSET 0 0 0
									CHANNELS 3 Zrotation Yrotation Xrotation
									End Site
									{
										OFFSET 0.39787 -0.00000 0.39787
									}
								}
							}
						}
					}
				}
				JOINT RightShoulder
				{
					OFFSET 0 0 0
					CHANNELS 3 Zrotation Yrotation Xrotation
					JOINT RightArm
					{
						OFFSET -3.04136 1.42992 -0.76390
						CHANNELS 3 Zrotation Yrotation Xrotation
						JOINT RightForeArm
						{
							OFFSET -5.55576 -0.00000 -0.00000
							CHANNELS 3 Zrotation Yrotation Xrotation
							JOINT RightHand
							{
								OFFSET -3.32774 -0.00000 -0.00000
								CHANNELS 3 Zrotation Yrotation Xrotation
								JOINT RightFingerBase
								{
									OFFSET 0 0 0
									CHANNELS 3 Zrotation Yrotation Xrotation
									JOINT RightHandIndex1
									{
										OFFSET -0.50763 -0.00000 -0.00000
										CHANNELS 3 Zrotation Yrotation Xrotation
										End Site
										{
											OFFSET -0.40926 -0.00000 -0.00000
										}
									}
								}
								JOINT RThumb
								{
									OFFSET 0 0 0
									CHANNELS 3 Zrotation Yrotation Xrotation
									End Site
									{
										OFFSET -0.41551 -0.00000 0.41551
									}
								}
							}
						}
					}
				}
			}
		}
	}
}
MOTION
Frames: 10
Frame Time: .0083333
28.2423 17.6654 5.6756 0 0 0 0 0 0 -21 0 0 0 0 0 0 0 0 0 0 0 0 0 0 21 0 0 0 0 0 0 0 0 0 0 0 0 0 0 0 0 0 0 0 0 0 0 -16 0 0 21 0 0 11 0 0 0 -8 0 0 0 0 0 0 0 0 0 0 0 0 0 0 0 0 0 0 0 0 8 0 0 0 0 0 0 0 0 0 0 0 0 0 0 0 0 0
28.2423 17.6654 5.6756 -28.5811 -81.1982 36.2402 0.0000 0.0000 0.0000 -13.9204 -7.6747 0.3559 4.2370 12.4693 37.4129 0.5096 -5.5874 16.6845 0.4921 -4.4979 -12.4819 0.0000 0.0000 0.0000 22.3177 12.6697 -25.2740 -1.5546 -7.8693 22.3178 0.4451 -11.7685 -5.4289 -0.9469 -6.1972 17.3577 1.6235 -2.0475 -1.3495 4.4250 -2.7860 -2.0781 3.6337 -1.4222 -1.2339 -7.5313 -6.9497 -8.9571 9.6796 -9.5819 9.6289 3.4983 -4.4378 5.1972 -0.0000 0.0000 0.0000 -90.0219 -6.6867 31.3164 18.5701 -28.8810 -4.8215 -0.0000 -0.0000 20.0631 15.7970 20.8969 5.7623 -7.1250 0.0000 -0.0000 -12.9045 51.1705 -1.9897 -0.0000 0.0000 0.0000 68.1686 8.8184 37.8490 -103.1913 59.3322 -71.3983 0.0000 0.0000 12.3360 -24.5302 -22.2926 9.8214 7.1250 -0.0000 -0.0000 4.6394 -54.1793 -1.0484
28.0741 17.6782 5.6523 -30.5786 -80.5656 38.1429 0.0000 0.0000 0.0000 -12.9496 -8.1200 -0.7490 4.6836 13.0183 39.4371 0.7513 -5.0505 18.9729 0.2879 -3.4506 -9.5360 0.0000 0.0000 0.0000 23.3472 12.4085 -24.5860 -1.5601 -7.8825 22.3577 0.4312 -11.6659 -6.1093 -0.9304 -6.1446 17.2045 2.1815 -2.0407 -1.2911 4.5447 -2.7812 -2.0844 3.4479 -1.4290 -1.2941 -7.4873 -6.9511 -8.9931 9.6908 -9.5731 9.4640 3.4958 -4.4322 5.1502 -0.0000 0.0000 0.0000 -90.0012 -6.1884 30.6595 17.9552 -28.0998 -4.5281 -0.0000 -0.0000 20.3664 15.5015 21.8229 5.8865 -7.1250 0.0000 -0.0000 -13.5691 52.0399 -2.3881 -0.0000 0.0000 0.0000 69.3348 7.7333 37.1868 -98.4083 59.7312 -67.2752 0.0000 0.0000 11.5231 -23.4663 -22.9524 9.6085 7.1250 -0.0000 -0.0000 5.9705 -54.6627 -1.4210
27.9093 17.6899 5.6291 -32.8240 -79.9704 40.2128 0.0000 0.0000 0.0000 -11.9459 -8.4192 -1.8744 5.1391 13.5388 41.4204 1.0022 -4.4541 21.0183 0.1598 -2.5759 -7.1001 0.0000 0.0000 0.0000 24.4388 12.1154 -23.8217 -1.5597 -7.8814 22.3545 0.4111 -11.5130 -6.7317 -0.9267 -6.1326 17.1698 2.7982 -2.0017 -1.4513 4.6483 -2.7557 -1.8630 3.1968 -1.4251 -1.0016 -7.5851 -6.9879 -9.0316 9.9256 -9.6098 9.1602 3.5823 -4.4432 5.0836 0.0000 0.0000 0.0000 -89.9100 -6.0431 29.7485 17.2527 -27.1898 -4.2022 -0.0000 -0.0000 21.3416 14.6420 20.4918 5.2258 -7.1250 0.0000 -0.0000 -13.8591 50.5814 -1.9385 0.0000 0.0000 0.0000 70.4214 6.7582 36.4141 -93.6916 59.9484 -63.1964 0.0000 0.0000 10.6536 -23.1551 -23.9321 9.8421 7.1250 -0.0000 -0.0000 6.6580 -55.6225 -1.7413
27.7485 17.6997 5.6118 -34.2494 -79.5554 41.4266 0.0000 0.0000 0.0000 -11.2037 -8.6078 -2.9803 5.6071 14.0364 43.3836 1.0537 -4.1297 21.2946 0.1142 -2.1783 -5.9988 0.0000 0.0000 0.0000 25.2943 11.5986 -23.0482 -1.5420 -7.8387 22.2253 0.3781 -11.1854 -7.1455 -0.9098 -6.0780 17.0108 3.2181 -1.9318 -1.2648 4.7105 -2.6583 -1.8288 3.0341 -1.3825 -1.0908 -7.5750 -7.0292 -8.9891 9.9340 -9.6539 8.9788 3.5821 -4.4676 5.0247 0.0000 -0.0000 0.0000 -89.9010 -5.5954 28.7488 16.6141 -26.3463 -3.9145 -0.0000 -0.0000 22.3821 14.0551 21.1284 5.1564 -7.1250 0.0000 -0.0000 -14.6815 51.1134 -2.2524 0.0000 -0.0000 0.0000 71.4912 5.7246 35.6348 -88.2642 59.9886 -58.4968 0.0000 0.0000 9.8163 -22.3276 -24.6092 9.7050 7.1250 -0.0000 -0.0000 7.8053 -56.1521 -2.1442
27.5866 17.7104 5.5929 -35.4972 -79.1112 42.4851 0.0000 0.0000 0.0000 -10.4630 -8.8762 -4.0950 6.1005 14.5250 45.3837 1.1172 -3.8816 21.7159 0.0802 -1.8264 -5.0261 0.0000 0.0000 0.0000 26.1411 11.1914 -22.2715 -1.5276 -7.8036 22.1191 0.3520 -10.9759 -7.6380 -0.8955 -6.0313 16.8753 3.6466 -1.8725 -1.2184 4.7624 -2.5868 -1.7217 2.8478 -1.3519 -1.0254 -7.5974 -7.0691 -8.9852 10.0318 -9.6969 8.7553 3.6141 -4.4873 4.9656 0.0000 -0.0000 0.0000 -89.8556 -5.2847 27.6553 15.9771 -25.4896 -3.6361 -0.0000 -0.0000 23.4177 13.0940 21.5718 4.8880 -7.1250 0.0000 -0.0000 -15.7965 51.3890 -2.5392 0.0000 -0.0000 0.0000 72.5864 4.8555 34.7056 -83.0477 59.8166 -53.9828 0.0000 0.0000 8.8447 -21.5376 -25.4328 9.6197 7.1250 -0.0000 -0.0000 9.0046 -56.8303 -2.6254
27.4265 17.7207 5.5754 -36.4366 -78.7615 43.2378 0.0000 0.0000 0.0000 -9.8507 -9.1205 -5.2277 6.6094 14.9940 47.3812 1.0939 -3.7039 21.4164 0.0750 -1.7662 -4.8599 0.0000 0.0000 0.0000 26.8681 10.8020 -21.4825 -1.5085 -7.7570 21.9783 0.3265 -10.7838 -8.0963 -0.8795 -5.9785 16.7222 3.9845 -1.7972 -1.1798 4.7834 -2.4937 -1.6013 2.6797 -1.3083 -0.9389 -7.6200 -7.1148 -8.9920 10.1300 -9.7478 8.5381 3.6451 -4.5105 4.9112 -0.0000 -0.0000 0.0000 -89.8110 -5.0111 26.4083 15.3479 -24.6286 -3.3696 -0.0000 -0.0000 24.5967 12.1370 21.9661 4.5992 -7.1250 0.0000 -0.0000 -16.8936 51.6125 -2.8184 -0.0000 -0.0000 0.0000 73.6691 4.0959 33.7020 -77.8223 59.4322 -49.4739 0.0000 0.0000 7.8229 -20.7624 -26.3323 9.5459 7.1250 -0.0000 -0.0000 10.2630 -57.5771 -3.1829
27.2670 17.7313 5.5583 -37.0126 -78.5018 43.6388 0.0000 0.0000 0.0000 -9.3723 -9.3530 -6.3691 7.1238 15.4353 49.3410 1.0002 -3.5627 20.4951 0.0893 -1.9271 -5.3042 0.0000 0.0000 0.0000 27.4661 10.4470 -20.6720 -1.4838 -7.6960 21.7946 0.3041 -10.6423 -8.5380 -0.8615 -5.9188 16.5489 4.2073 -1.7157 -1.1266 4.7766 -2.3885 -1.4962 2.5480 -1.2568 -0.8719 -7.6446 -7.1617 -9.0048 10.2168 -9.8009 8.3540 3.6722 -4.5350 4.8678 0.0000 0.0000 0.0000 -89.7705 -4.7250 25.0090 14.7370 -23.7785 -3.1191 -0.0000 -0.0000 25.8755 11.3800 22.2205 4.3527 -7.1250 0.0000 -0.0000 -17.7391 51.7310 -3.0195 0.0000 0.0000 0.0000 74.7352 3.4067 32.6534 -72.7107 58.8398 -45.0853 0.0000 0.0000 6.7770 -20.0493 -27.3172 9.5076 7.1250 -0.0000 -0.0000 11.5459 -58.4098 -3.8196
27.1080 17.7422 5.5412 -37.3056 -78.3330 43.7792 0.0000 0.0000 0.0000 -9.0119 -9.5647 -7.5265 7.6328 15.8424 51.2290 0.8556 -3.4672 19.0592 0.1276 -2.3025 -6.3425 0.0000 0.0000 0.0000 27.9485 10.1579 -19.8393 -1.4540 -7.6218 21.5710 0.2860 -10.5686 -8.9746 -0.8431 -5.8569 16.3697 4.3144 -1.6236 -1.0916 4.7476 -2.2686 -1.3941 2.4574 -1.1960 -0.7933 -7.6769 -7.2110 -9.0303 10.2977 -9.8568 8.1932 3.6979 -4.5607 4.8340 -0.0000 -0.0000 0.0000 -89.7325 -4.4498 23.4535 14.1404 -22.9350 -2.8826 -0.0000 -0.0000 27.2532 10.9351 22.1143 4.1600 -7.1250 0.0000 -0.0000 -18.1150 51.5556 -3.0075 -0.0000 -0.0000 0.0000 75.7724 2.7913 31.5676 -67.8326 58.0593 -40.9276 0.0000 0.0000 5.7613 -19.4628 -28.3780 9.5344 7.1250 -0.0000 -0.0000 12.7919 -59.3322 -4.5239
26.9493 17.7537 5.5236 -37.4202 -78.2399 43.7725 0.0000 0.0000 0.0000 -8.7329 -9.7429 -8.7110 8.1230 16.2090 53.0045 0.6941 -3.3819 17.3228 0.1833 -2.7574 -7.6040 0.0000 0.0000 0.0000 28.3472 9.9317 -18.9991 -1.4202 -7.5364 21.3147 0.2713 -10.5492 -9.4053 -0.8247 -5.7940 16.1879 4.3223 -1.5172 -1.0723 4.7073 -2.1288 -1.3057 2.4102 -1.1242 -0.7164 -7.7156 -7.2635 -9.0691 10.3627 -9.9156 8.0583 3.7187 -4.5879 4.8101 -0.0000 -0.0000 0.0000 -89.6992 -4.1695 21.7573 13.5624 -22.1056 -2.6612 -0.0000 -0.0000 28.7021 10.9235 21.6331 4.0697 -7.1250 0.0000 -0.0000 -17.9011 51.0938 -2.7628 -0.0000 -0.0000 0.0000 76.7693 2.2128 30.4610 -63.2828 57.1231 -37.0857 0.0000 0.0000 4.8486 -19.0381 -29.4709 9.6352 7.1250 -0.0000 -0.0000 13.9459 -60.3089 -5.2677
